<svg width="5" height="16" viewBox="0 0 5 16" fill="none" xmlns="http://www.w3.org/2000/svg">
<path d="M4.07636 0V6.10133C4.07636 6.75556 4.03725 7.40622 3.95903 8.05333C3.88081 8.69333 3.7777 9.34756 3.6497 10.016H1.4097C1.2817 9.34756 1.17858 8.69333 1.10036 8.05333C1.02214 7.40622 0.983028 6.75556 0.983028 6.10133V0H4.07636ZM0.620361 13.8667C0.620361 13.6107 0.666584 13.3724 0.759028 13.152C0.858584 12.9316 0.990139 12.7396 1.15369 12.576C1.32436 12.4124 1.52347 12.2844 1.75103 12.192C1.97858 12.0924 2.22747 12.0427 2.4977 12.0427C2.76081 12.0427 3.00614 12.0924 3.2337 12.192C3.46125 12.2844 3.66036 12.4124 3.83103 12.576C4.0017 12.7396 4.13325 12.9316 4.2257 13.152C4.32525 13.3724 4.37503 13.6107 4.37503 13.8667C4.37503 14.1227 4.32525 14.3644 4.2257 14.592C4.13325 14.8124 4.0017 15.0044 3.83103 15.168C3.66036 15.3316 3.46125 15.4596 3.2337 15.552C3.00614 15.6444 2.76081 15.6907 2.4977 15.6907C2.22747 15.6907 1.97858 15.6444 1.75103 15.552C1.52347 15.4596 1.32436 15.3316 1.15369 15.168C0.990139 15.0044 0.858584 14.8124 0.759028 14.592C0.666584 14.3644 0.620361 14.1227 0.620361 13.8667Z" fill="white"/>
</svg>
