<svg width="22" height="14" viewBox="0 0 22 14" fill="none" xmlns="http://www.w3.org/2000/svg">
<path fill-rule="evenodd" clip-rule="evenodd" d="M6.697 7.66683C8.08219 8.85977 9.5026 10.7232 9.5026 13.3335L7.5026 13.3335C7.5026 11.4223 6.41869 10.0121 5.20534 9.02628C4.60431 8.53794 3.99825 8.17749 3.54067 7.93916C3.31307 7.82062 3.12535 7.73392 2.99762 7.67804C2.93384 7.65014 2.88526 7.63003 2.85445 7.61757L2.82194 7.60465L2.81815 7.60316L2.81633 7.60248L0.670944 6.79796L2.72092 5.77297L2.72876 5.76898L2.76433 5.75051C2.79724 5.73323 2.84802 5.70613 2.91412 5.66954C3.04645 5.59629 3.23938 5.48543 3.4726 5.33967C3.94115 5.04683 4.56165 4.61973 5.17743 4.08092C6.45102 2.96654 7.5026 1.55373 7.5026 0.000163378L9.5026 0.000163203C9.5026 2.4466 7.88752 4.36713 6.49444 5.58607C6.46338 5.61325 6.43233 5.64017 6.4013 5.66683L21.8359 5.66683L21.8359 7.66683L6.697 7.66683Z" fill="#41515C"/>
</svg>
