<svg width="17" height="12" viewBox="0 0 17 12" fill="none" xmlns="http://www.w3.org/2000/svg">
<path fill-rule="evenodd" clip-rule="evenodd" d="M12.1125 5.46302C11.0653 4.50867 9.99154 3.01796 9.99154 0.929688H11.5035C11.5035 2.45864 12.3229 3.58679 13.2401 4.37546C13.6945 4.76613 14.1526 5.0545 14.4986 5.24516C14.6706 5.33999 14.8125 5.40935 14.9091 5.45405C14.9573 5.47638 14.994 5.49247 15.0173 5.50243L15.0419 5.51277L15.0448 5.51396L15.0461 5.5145L16.668 6.15812L15.1183 6.97811L15.1123 6.9813L15.0854 6.99608C15.0606 7.0099 15.0222 7.03158 14.9722 7.06085C14.8722 7.11945 14.7263 7.20814 14.55 7.32475C14.1958 7.55902 13.7267 7.9007 13.2612 8.33175C12.2984 9.22326 11.5035 10.3535 11.5035 11.5964H9.99154C9.99154 9.6392 11.2125 8.10278 12.2656 7.12763C12.2891 7.10588 12.3126 7.08435 12.336 7.06302H0.667969V5.46302H12.1125Z" fill="#CDE67B"/>
</svg>
